<svg width="149" height="38" viewBox="0 0 149 38" fill="none" xmlns="http://www.w3.org/2000/svg">
<path fill-rule="evenodd" clip-rule="evenodd" d="M12.9167 5.9906C19.0129 5.9906 24.7477 10.5719 24.7477 18.3248C24.7477 21.8329 23.5693 24.7162 21.731 26.7826L24.4806 29.9222L21.8253 32.2289L18.9658 29.0572C17.1589 30.1305 15.0378 30.6911 12.901 30.6911C6.80486 30.6911 1.10149 26.1098 1.10149 18.3248C1.1172 10.5719 6.82057 5.9906 12.9167 5.9906ZM12.9167 26.8787C14.0951 26.8787 15.3049 26.6384 16.389 26.1098L12.5554 21.7688L15.2421 19.4301L19.1072 23.8032C20.097 22.4256 20.7098 20.6315 20.7098 18.3248C20.7098 12.6062 16.8447 9.77096 12.901 9.77096C9.0045 9.77096 5.1237 12.6062 5.1237 18.3248C5.13941 24.0434 9.02022 26.8787 12.9167 26.8787Z" fill="white"/>
<path fill-rule="evenodd" clip-rule="evenodd" d="M33.5777 30.659C29.7755 30.659 27.5444 27.7917 27.5444 24.1715V13.9037H31.3466V23.4667C31.3466 25.469 32.2579 27.183 34.5675 27.183C36.7672 27.183 37.9142 25.6773 37.9142 23.5468V13.9037H41.7164V27.215C41.7164 28.5446 41.8107 29.5858 41.8735 30.1945H38.2284C38.1655 29.8261 38.1027 29.0572 38.1027 28.3844C37.3014 29.8581 35.4474 30.659 33.5777 30.659Z" fill="white"/>
<path fill-rule="evenodd" clip-rule="evenodd" d="M47.6712 5.65417C49.0538 5.65417 50.1693 6.79149 50.1693 8.20111C50.1693 9.61074 49.0538 10.716 47.6712 10.716C46.3199 10.716 45.2044 9.61074 45.2044 8.20111C45.2044 6.79149 46.3199 5.65417 47.6712 5.65417ZM45.8015 30.1945V13.9037H49.5723V30.1785H45.8015V30.1945Z" fill="white"/>
<path fill-rule="evenodd" clip-rule="evenodd" d="M53.673 30.1945V5.9906H57.4753V30.1945H53.673Z" fill="white"/>
<path fill-rule="evenodd" clip-rule="evenodd" d="M61.576 30.1945V5.9906H65.3783V30.1945H61.576Z" fill="white"/>
<path fill-rule="evenodd" clip-rule="evenodd" d="M87.6446 22.2012C87.6446 25.2533 85.61 27.4926 83.0066 27.4926C80.4031 27.4926 78.3512 25.2533 78.3512 22.2012C78.3512 19.1491 80.4031 16.9097 83.0066 16.9097C85.61 16.9097 87.6446 19.1491 87.6446 22.2012ZM91.2506 22.2012C91.2506 26.9461 87.5596 30.7926 83.0066 30.7926C78.4535 30.7926 74.7626 26.9461 74.7626 22.2012C74.7626 17.4563 78.4535 13.6097 83.0066 13.6097C87.5596 13.6097 91.2506 17.4563 91.2506 22.2012ZM71.1244 30.4983C72.6201 30.4983 73.8326 29.2858 73.8326 27.79C73.8326 26.2943 72.6201 25.0818 71.1244 25.0818C69.6287 25.0818 68.4161 26.2943 68.4161 27.79C68.4161 29.2858 69.6287 30.4983 71.1244 30.4983ZM116.957 27.4817C115.666 28.8485 113.923 29.687 112.005 29.687C108.03 29.687 104.808 26.088 104.808 21.6484C104.808 17.2088 108.03 13.7273 112.005 13.7273C113.923 13.7273 115.666 14.5384 116.957 15.8768V14.1588H120.719V29.7766C120.789 32.2451 119.238 37.1823 112.477 37.1823C106.513 37.1823 104.999 33.5208 104.69 31.1732L108.028 30.3439C108.78 32.347 109.499 33.729 112.477 33.729C116.299 33.729 117.056 30.5828 116.957 28.9703V27.4817ZM116.893 21.6484C116.893 24.6183 114.629 26.387 112.811 26.387C110.682 26.387 108.647 24.6183 108.647 21.6484C108.647 18.6785 110.993 16.9098 112.811 16.9098C114.629 16.9098 116.893 18.6785 116.893 21.6484ZM103.634 17.7085V13.9801C100.457 13.9801 98.7724 14.9089 97.8685 16.0048V14.1161H94.1888V30.3876H97.8685V23.0563C98.0149 19.0911 99.494 17.7085 103.478 17.7085H103.634Z" fill="white"/>
<path fill-rule="evenodd" clip-rule="evenodd" d="M135.4 27.7437C135.085 27.7437 134.803 27.5675 134.677 27.2471L133.938 25.4691L132.1 25.9016C131.676 25.9977 131.252 25.7254 131.157 25.2929C131.063 24.8604 131.33 24.4279 131.755 24.3318L134.237 23.7551C134.614 23.675 134.991 23.8672 135.133 24.2196L136.122 26.6064C136.295 27.0069 136.107 27.4874 135.698 27.6476C135.604 27.7117 135.51 27.7437 135.4 27.7437Z" fill="white"/>
<path fill-rule="evenodd" clip-rule="evenodd" d="M132.037 30.0823C131.912 30.0823 131.786 30.0503 131.676 29.9862C131.424 29.8581 131.252 29.5858 131.252 29.2974L131.157 25.1326C131.142 24.6841 131.487 24.3157 131.927 24.3157H131.943C132.367 24.3157 132.713 24.6681 132.729 25.1006L132.791 27.7917L134.975 26.2699C135.337 26.0136 135.824 26.1097 136.059 26.4782C136.311 26.8466 136.217 27.3432 135.855 27.5834L132.477 29.9382C132.336 30.0343 132.194 30.0823 132.037 30.0823Z" fill="white"/>
<path fill-rule="evenodd" clip-rule="evenodd" d="M143.711 2.61064C144.23 2.61064 144.764 2.73879 145.267 2.99508C146.948 3.8761 147.608 5.9585 146.743 7.67248L141.071 18.9495L136.044 21.3362L135.007 15.7778L140.679 4.50082C141.276 3.29943 142.47 2.61064 143.711 2.61064ZM143.711 1.00879C141.841 1.00879 140.129 2.06601 139.28 3.76397L133.608 15.041C133.451 15.3614 133.404 15.7138 133.467 16.0662L134.504 21.6246C134.598 22.1051 134.897 22.5216 135.337 22.7459C135.557 22.858 135.808 22.9221 136.059 22.9221C136.279 22.9221 136.515 22.874 136.719 22.7779L141.747 20.3912C142.061 20.247 142.328 19.9907 142.486 19.6703L148.157 8.39331C149.414 5.91044 148.44 2.8349 146.005 1.56944C145.282 1.20101 144.497 1.00879 143.711 1.00879Z" fill="white"/>
<path fill-rule="evenodd" clip-rule="evenodd" d="M139.657 14.9448C139.532 14.9448 139.406 14.9128 139.296 14.8487C139.076 14.7366 138.935 14.5284 138.888 14.2881L137.851 8.72967C137.772 8.29717 138.055 7.88069 138.479 7.80059C138.903 7.7205 139.312 8.00883 139.39 8.44133L140.239 12.9906L144.355 11.0363C144.748 10.8441 145.219 11.0203 145.392 11.4208C145.581 11.8212 145.408 12.3018 145.015 12.478L139.987 14.8647C139.877 14.9128 139.767 14.9448 139.657 14.9448Z" fill="white"/>
<path fill-rule="evenodd" clip-rule="evenodd" d="M134.41 25.3409C134.284 25.3409 134.174 25.3088 134.048 25.2448C133.656 25.0365 133.514 24.556 133.703 24.1715L142.69 6.3109C142.894 5.91044 143.365 5.76627 143.743 5.9585C144.135 6.16674 144.277 6.64729 144.088 7.03174L135.101 24.8923C134.975 25.1807 134.708 25.3409 134.41 25.3409Z" fill="white"/>
<path fill-rule="evenodd" clip-rule="evenodd" d="M132.037 30.0823H125.36C124.92 30.0823 124.574 29.7299 124.574 29.2814C124.574 28.8329 124.92 28.4805 125.36 28.4805H132.037C132.477 28.4805 132.823 28.8329 132.823 29.2814C132.823 29.7299 132.477 30.0823 132.037 30.0823Z" fill="white"/>
</svg>
